<svg xmlns="http://www.w3.org/2000/svg" xmlns:xlink="http://www.w3.org/1999/xlink" width="144" zoomAndPan="magnify" viewBox="0 0 108 107.999999" height="144" preserveAspectRatio="xMidYMid meet" version="1.0"><defs><g/></defs><g fill="#ffffff" fill-opacity="1"><g transform="translate(23.541049, 56.174986)"><g><path d="M 7.90625 0.34375 C 6.488281 0.34375 5.113281 0.171875 3.78125 -0.171875 C 2.445312 -0.523438 1.363281 -0.992188 0.53125 -1.578125 L 2.15625 -5.21875 C 2.9375 -4.707031 3.84375 -4.289062 4.875 -3.96875 C 5.90625 -3.65625 6.921875 -3.5 7.921875 -3.5 C 9.828125 -3.5 10.78125 -3.972656 10.78125 -4.921875 C 10.78125 -5.421875 10.507812 -5.789062 9.96875 -6.03125 C 9.425781 -6.28125 8.550781 -6.535156 7.34375 -6.796875 C 6.03125 -7.078125 4.929688 -7.378906 4.046875 -7.703125 C 3.160156 -8.035156 2.398438 -8.554688 1.765625 -9.265625 C 1.140625 -9.984375 0.828125 -10.953125 0.828125 -12.171875 C 0.828125 -13.242188 1.117188 -14.207031 1.703125 -15.0625 C 2.285156 -15.914062 3.15625 -16.59375 4.3125 -17.09375 C 5.46875 -17.59375 6.890625 -17.84375 8.578125 -17.84375 C 9.722656 -17.84375 10.851562 -17.710938 11.96875 -17.453125 C 13.09375 -17.203125 14.078125 -16.828125 14.921875 -16.328125 L 13.40625 -12.65625 C 11.738281 -13.550781 10.117188 -14 8.546875 -14 C 7.566406 -14 6.847656 -13.851562 6.390625 -13.5625 C 5.941406 -13.269531 5.71875 -12.890625 5.71875 -12.421875 C 5.71875 -11.953125 5.984375 -11.601562 6.515625 -11.375 C 7.054688 -11.144531 7.914062 -10.90625 9.09375 -10.65625 C 10.425781 -10.363281 11.53125 -10.054688 12.40625 -9.734375 C 13.28125 -9.410156 14.039062 -8.894531 14.6875 -8.1875 C 15.332031 -7.476562 15.65625 -6.515625 15.65625 -5.296875 C 15.65625 -4.242188 15.363281 -3.289062 14.78125 -2.4375 C 14.195312 -1.59375 13.320312 -0.914062 12.15625 -0.40625 C 10.988281 0.09375 9.570312 0.34375 7.90625 0.34375 Z M 7.90625 0.34375 "/></g></g></g><g fill="#ffffff" fill-opacity="1"><g transform="translate(41.888482, 56.174986)"><g><path d="M 10.578125 0.34375 C 8.722656 0.34375 7.054688 -0.046875 5.578125 -0.828125 C 4.109375 -1.609375 2.953125 -2.691406 2.109375 -4.078125 C 1.265625 -5.460938 0.84375 -7.019531 0.84375 -8.75 C 0.84375 -10.476562 1.265625 -12.035156 2.109375 -13.421875 C 2.953125 -14.804688 4.109375 -15.890625 5.578125 -16.671875 C 7.054688 -17.453125 8.722656 -17.84375 10.578125 -17.84375 C 12.421875 -17.84375 14.082031 -17.453125 15.5625 -16.671875 C 17.039062 -15.890625 18.195312 -14.804688 19.03125 -13.421875 C 19.875 -12.035156 20.296875 -10.476562 20.296875 -8.75 C 20.296875 -7.019531 19.875 -5.460938 19.03125 -4.078125 C 18.195312 -2.691406 17.039062 -1.609375 15.5625 -0.828125 C 14.082031 -0.046875 12.421875 0.34375 10.578125 0.34375 Z M 10.578125 -3.75 C 11.460938 -3.75 12.257812 -3.957031 12.96875 -4.375 C 13.6875 -4.789062 14.253906 -5.378906 14.671875 -6.140625 C 15.085938 -6.898438 15.296875 -7.769531 15.296875 -8.75 C 15.296875 -9.726562 15.085938 -10.597656 14.671875 -11.359375 C 14.253906 -12.117188 13.6875 -12.707031 12.96875 -13.125 C 12.257812 -13.539062 11.460938 -13.75 10.578125 -13.75 C 9.691406 -13.75 8.890625 -13.539062 8.171875 -13.125 C 7.453125 -12.707031 6.882812 -12.117188 6.46875 -11.359375 C 6.050781 -10.597656 5.84375 -9.726562 5.84375 -8.75 C 5.84375 -7.769531 6.050781 -6.898438 6.46875 -6.140625 C 6.882812 -5.378906 7.453125 -4.789062 8.171875 -4.375 C 8.890625 -3.957031 9.691406 -3.75 10.578125 -3.75 Z M 10.578125 -3.75 "/></g></g></g><g fill="#ffffff" fill-opacity="1"><g transform="translate(65.210135, 56.174986)"><g><path d="M 15.203125 -9.125 C 16.203125 -8.769531 16.984375 -8.222656 17.546875 -7.484375 C 18.117188 -6.742188 18.40625 -5.847656 18.40625 -4.796875 C 18.40625 -3.265625 17.785156 -2.082031 16.546875 -1.25 C 15.316406 -0.414062 13.535156 0 11.203125 0 L 1.75 0 L 1.75 -17.5 L 10.703125 -17.5 C 12.929688 -17.5 14.628906 -17.085938 15.796875 -16.265625 C 16.960938 -15.441406 17.546875 -14.328125 17.546875 -12.921875 C 17.546875 -12.085938 17.34375 -11.34375 16.9375 -10.6875 C 16.53125 -10.03125 15.953125 -9.507812 15.203125 -9.125 Z M 6.65625 -13.921875 L 6.65625 -10.546875 L 10.046875 -10.546875 C 11.710938 -10.546875 12.546875 -11.113281 12.546875 -12.25 C 12.546875 -13.363281 11.710938 -13.921875 10.046875 -13.921875 Z M 10.796875 -3.578125 C 12.535156 -3.578125 13.40625 -4.164062 13.40625 -5.34375 C 13.40625 -6.53125 12.535156 -7.125 10.796875 -7.125 L 6.65625 -7.125 L 6.65625 -3.578125 Z M 10.796875 -3.578125 "/></g></g></g><g fill="#ffffff" fill-opacity="1"><g transform="translate(21.388769, 66.758323)"><g><path d="M 1.546875 0.046875 C 1.285156 0.046875 1.03125 0.00390625 0.78125 -0.078125 C 0.539062 -0.160156 0.347656 -0.269531 0.203125 -0.40625 L 0.390625 -0.796875 C 0.523438 -0.671875 0.695312 -0.570312 0.90625 -0.5 C 1.113281 -0.425781 1.328125 -0.390625 1.546875 -0.390625 C 1.835938 -0.390625 2.050781 -0.4375 2.1875 -0.53125 C 2.332031 -0.632812 2.40625 -0.765625 2.40625 -0.921875 C 2.40625 -1.046875 2.363281 -1.144531 2.28125 -1.21875 C 2.207031 -1.289062 2.113281 -1.347656 2 -1.390625 C 1.882812 -1.429688 1.722656 -1.476562 1.515625 -1.53125 C 1.253906 -1.59375 1.039062 -1.65625 0.875 -1.71875 C 0.71875 -1.78125 0.582031 -1.875 0.46875 -2 C 0.351562 -2.132812 0.296875 -2.316406 0.296875 -2.546875 C 0.296875 -2.722656 0.34375 -2.882812 0.4375 -3.03125 C 0.53125 -3.1875 0.675781 -3.3125 0.875 -3.40625 C 1.082031 -3.5 1.332031 -3.546875 1.625 -3.546875 C 1.832031 -3.546875 2.035156 -3.515625 2.234375 -3.453125 C 2.441406 -3.398438 2.613281 -3.328125 2.75 -3.234375 L 2.59375 -2.828125 C 2.445312 -2.921875 2.289062 -2.988281 2.125 -3.03125 C 1.957031 -3.082031 1.789062 -3.109375 1.625 -3.109375 C 1.34375 -3.109375 1.128906 -3.054688 0.984375 -2.953125 C 0.847656 -2.859375 0.78125 -2.726562 0.78125 -2.5625 C 0.78125 -2.4375 0.816406 -2.335938 0.890625 -2.265625 C 0.972656 -2.191406 1.070312 -2.132812 1.1875 -2.09375 C 1.3125 -2.050781 1.476562 -2.003906 1.6875 -1.953125 C 1.945312 -1.890625 2.15625 -1.828125 2.3125 -1.765625 C 2.476562 -1.703125 2.617188 -1.601562 2.734375 -1.46875 C 2.847656 -1.34375 2.90625 -1.171875 2.90625 -0.953125 C 2.90625 -0.773438 2.851562 -0.609375 2.75 -0.453125 C 2.644531 -0.296875 2.488281 -0.171875 2.28125 -0.078125 C 2.082031 0.00390625 1.835938 0.046875 1.546875 0.046875 Z M 1.546875 0.046875 "/></g></g></g><g fill="#ffffff" fill-opacity="1"><g transform="translate(25.733791, 66.758323)"><g><path d="M 1.890625 -3.5 C 2.335938 -3.5 2.691406 -3.390625 2.953125 -3.171875 C 3.210938 -2.953125 3.34375 -2.65625 3.34375 -2.28125 C 3.34375 -1.894531 3.210938 -1.59375 2.953125 -1.375 C 2.691406 -1.164062 2.335938 -1.0625 1.890625 -1.0625 L 1.03125 -1.0625 L 1.03125 0 L 0.53125 0 L 0.53125 -3.5 Z M 1.875 -1.5 C 2.1875 -1.5 2.425781 -1.566406 2.59375 -1.703125 C 2.757812 -1.835938 2.84375 -2.03125 2.84375 -2.28125 C 2.84375 -2.53125 2.757812 -2.722656 2.59375 -2.859375 C 2.425781 -2.992188 2.1875 -3.0625 1.875 -3.0625 L 1.03125 -3.0625 L 1.03125 -1.5 Z M 1.875 -1.5 "/></g></g></g><g fill="#ffffff" fill-opacity="1"><g transform="translate(30.583816, 66.758323)"><g><path d="M 2.859375 0 L 2.109375 -1.078125 C 2.015625 -1.066406 1.941406 -1.0625 1.890625 -1.0625 L 1.03125 -1.0625 L 1.03125 0 L 0.53125 0 L 0.53125 -3.5 L 1.890625 -3.5 C 2.335938 -3.5 2.691406 -3.390625 2.953125 -3.171875 C 3.210938 -2.953125 3.34375 -2.65625 3.34375 -2.28125 C 3.34375 -2.007812 3.273438 -1.78125 3.140625 -1.59375 C 3.015625 -1.40625 2.828125 -1.265625 2.578125 -1.171875 L 3.40625 0 Z M 1.875 -1.484375 C 2.1875 -1.484375 2.425781 -1.550781 2.59375 -1.6875 C 2.757812 -1.832031 2.84375 -2.03125 2.84375 -2.28125 C 2.84375 -2.53125 2.757812 -2.722656 2.59375 -2.859375 C 2.425781 -2.992188 2.1875 -3.0625 1.875 -3.0625 L 1.03125 -3.0625 L 1.03125 -1.484375 Z M 1.875 -1.484375 "/></g></g></g><g fill="#ffffff" fill-opacity="1"><g transform="translate(35.45884, 66.758323)"><g><path d="M 0.53125 -3.5 L 1.03125 -3.5 L 1.03125 0 L 0.53125 0 Z M 0.53125 -3.5 "/></g></g></g><g fill="#ffffff" fill-opacity="1"><g transform="translate(38.248852, 66.758323)"><g><path d="M 3.53125 -3.5 L 3.53125 0 L 3.125 0 L 1.03125 -2.609375 L 1.03125 0 L 0.53125 0 L 0.53125 -3.5 L 0.9375 -3.5 L 3.03125 -0.890625 L 3.03125 -3.5 Z M 3.53125 -3.5 "/></g></g></g><g fill="#ffffff" fill-opacity="1"><g transform="translate(43.548876, 66.758323)"><g><path d="M 1.21875 -3.0625 L 0.015625 -3.0625 L 0.015625 -3.5 L 2.921875 -3.5 L 2.921875 -3.0625 L 1.71875 -3.0625 L 1.71875 0 L 1.21875 0 Z M 1.21875 -3.0625 "/></g></g></g><g fill="#ffffff" fill-opacity="1"><g transform="translate(47.723896, 66.758323)"><g/></g></g><g fill="#ffffff" fill-opacity="1"><g transform="translate(50.308905, 66.758323)"><g><path d="M 2.109375 0.046875 C 1.753906 0.046875 1.429688 -0.03125 1.140625 -0.1875 C 0.859375 -0.34375 0.632812 -0.554688 0.46875 -0.828125 C 0.3125 -1.109375 0.234375 -1.414062 0.234375 -1.75 C 0.234375 -2.082031 0.3125 -2.382812 0.46875 -2.65625 C 0.632812 -2.9375 0.859375 -3.15625 1.140625 -3.3125 C 1.429688 -3.46875 1.753906 -3.546875 2.109375 -3.546875 C 2.453125 -3.546875 2.765625 -3.46875 3.046875 -3.3125 C 3.335938 -3.15625 3.5625 -2.941406 3.71875 -2.671875 C 3.875 -2.398438 3.953125 -2.09375 3.953125 -1.75 C 3.953125 -1.40625 3.875 -1.097656 3.71875 -0.828125 C 3.5625 -0.554688 3.335938 -0.34375 3.046875 -0.1875 C 2.765625 -0.03125 2.453125 0.046875 2.109375 0.046875 Z M 2.109375 -0.40625 C 2.359375 -0.40625 2.585938 -0.460938 2.796875 -0.578125 C 3.003906 -0.691406 3.164062 -0.851562 3.28125 -1.0625 C 3.394531 -1.269531 3.453125 -1.5 3.453125 -1.75 C 3.453125 -2 3.394531 -2.226562 3.28125 -2.4375 C 3.164062 -2.644531 3.003906 -2.804688 2.796875 -2.921875 C 2.585938 -3.035156 2.359375 -3.09375 2.109375 -3.09375 C 1.847656 -3.09375 1.613281 -3.035156 1.40625 -2.921875 C 1.195312 -2.804688 1.03125 -2.644531 0.90625 -2.4375 C 0.789062 -2.226562 0.734375 -2 0.734375 -1.75 C 0.734375 -1.5 0.789062 -1.269531 0.90625 -1.0625 C 1.03125 -0.851562 1.195312 -0.691406 1.40625 -0.578125 C 1.613281 -0.460938 1.847656 -0.40625 2.109375 -0.40625 Z M 2.109375 -0.40625 "/></g></g></g><g fill="#ffffff" fill-opacity="1"><g transform="translate(55.748935, 66.758323)"><g><path d="M 1.03125 -3.0625 L 1.03125 -1.84375 L 2.78125 -1.84375 L 2.78125 -1.421875 L 1.03125 -1.421875 L 1.03125 0 L 0.53125 0 L 0.53125 -3.5 L 3 -3.5 L 3 -3.0625 Z M 1.03125 -3.0625 "/></g></g></g><g fill="#ffffff" fill-opacity="1"><g transform="translate(60.163957, 66.758323)"><g/></g></g><g fill="#ffffff" fill-opacity="1"><g transform="translate(62.748967, 66.758323)"><g><path d="M 2.875 -1.8125 C 3.082031 -1.757812 3.242188 -1.65625 3.359375 -1.5 C 3.472656 -1.351562 3.53125 -1.164062 3.53125 -0.9375 C 3.53125 -0.632812 3.414062 -0.398438 3.1875 -0.234375 C 2.957031 -0.078125 2.625 0 2.1875 0 L 0.53125 0 L 0.53125 -3.5 L 2.09375 -3.5 C 2.488281 -3.5 2.796875 -3.414062 3.015625 -3.25 C 3.234375 -3.09375 3.34375 -2.875 3.34375 -2.59375 C 3.34375 -2.40625 3.300781 -2.242188 3.21875 -2.109375 C 3.132812 -1.984375 3.019531 -1.882812 2.875 -1.8125 Z M 1.03125 -3.09375 L 1.03125 -1.96875 L 2.046875 -1.96875 C 2.304688 -1.96875 2.503906 -2.015625 2.640625 -2.109375 C 2.773438 -2.210938 2.84375 -2.351562 2.84375 -2.53125 C 2.84375 -2.71875 2.773438 -2.859375 2.640625 -2.953125 C 2.503906 -3.046875 2.304688 -3.09375 2.046875 -3.09375 Z M 2.171875 -0.40625 C 2.453125 -0.40625 2.664062 -0.453125 2.8125 -0.546875 C 2.957031 -0.640625 3.03125 -0.785156 3.03125 -0.984375 C 3.03125 -1.367188 2.742188 -1.5625 2.171875 -1.5625 L 1.03125 -1.5625 L 1.03125 -0.40625 Z M 2.171875 -0.40625 "/></g></g></g><g fill="#ffffff" fill-opacity="1"><g transform="translate(67.773989, 66.758323)"><g><path d="M 2.109375 0.046875 C 1.753906 0.046875 1.429688 -0.03125 1.140625 -0.1875 C 0.859375 -0.34375 0.632812 -0.554688 0.46875 -0.828125 C 0.3125 -1.109375 0.234375 -1.414062 0.234375 -1.75 C 0.234375 -2.082031 0.3125 -2.382812 0.46875 -2.65625 C 0.632812 -2.9375 0.859375 -3.15625 1.140625 -3.3125 C 1.429688 -3.46875 1.753906 -3.546875 2.109375 -3.546875 C 2.453125 -3.546875 2.765625 -3.46875 3.046875 -3.3125 C 3.335938 -3.15625 3.5625 -2.941406 3.71875 -2.671875 C 3.875 -2.398438 3.953125 -2.09375 3.953125 -1.75 C 3.953125 -1.40625 3.875 -1.097656 3.71875 -0.828125 C 3.5625 -0.554688 3.335938 -0.34375 3.046875 -0.1875 C 2.765625 -0.03125 2.453125 0.046875 2.109375 0.046875 Z M 2.109375 -0.40625 C 2.359375 -0.40625 2.585938 -0.460938 2.796875 -0.578125 C 3.003906 -0.691406 3.164062 -0.851562 3.28125 -1.0625 C 3.394531 -1.269531 3.453125 -1.5 3.453125 -1.75 C 3.453125 -2 3.394531 -2.226562 3.28125 -2.4375 C 3.164062 -2.644531 3.003906 -2.804688 2.796875 -2.921875 C 2.585938 -3.035156 2.359375 -3.09375 2.109375 -3.09375 C 1.847656 -3.09375 1.613281 -3.035156 1.40625 -2.921875 C 1.195312 -2.804688 1.03125 -2.644531 0.90625 -2.4375 C 0.789062 -2.226562 0.734375 -2 0.734375 -1.75 C 0.734375 -1.5 0.789062 -1.269531 0.90625 -1.0625 C 1.03125 -0.851562 1.195312 -0.691406 1.40625 -0.578125 C 1.613281 -0.460938 1.847656 -0.40625 2.109375 -0.40625 Z M 2.109375 -0.40625 "/></g></g></g><g fill="#ffffff" fill-opacity="1"><g transform="translate(73.21402, 66.758323)"><g><path d="M 2.109375 0.046875 C 1.753906 0.046875 1.429688 -0.03125 1.140625 -0.1875 C 0.859375 -0.34375 0.632812 -0.554688 0.46875 -0.828125 C 0.3125 -1.109375 0.234375 -1.414062 0.234375 -1.75 C 0.234375 -2.082031 0.3125 -2.382812 0.46875 -2.65625 C 0.632812 -2.9375 0.859375 -3.15625 1.140625 -3.3125 C 1.429688 -3.46875 1.753906 -3.546875 2.109375 -3.546875 C 2.453125 -3.546875 2.765625 -3.46875 3.046875 -3.3125 C 3.335938 -3.15625 3.5625 -2.941406 3.71875 -2.671875 C 3.875 -2.398438 3.953125 -2.09375 3.953125 -1.75 C 3.953125 -1.40625 3.875 -1.097656 3.71875 -0.828125 C 3.5625 -0.554688 3.335938 -0.34375 3.046875 -0.1875 C 2.765625 -0.03125 2.453125 0.046875 2.109375 0.046875 Z M 2.109375 -0.40625 C 2.359375 -0.40625 2.585938 -0.460938 2.796875 -0.578125 C 3.003906 -0.691406 3.164062 -0.851562 3.28125 -1.0625 C 3.394531 -1.269531 3.453125 -1.5 3.453125 -1.75 C 3.453125 -2 3.394531 -2.226562 3.28125 -2.4375 C 3.164062 -2.644531 3.003906 -2.804688 2.796875 -2.921875 C 2.585938 -3.035156 2.359375 -3.09375 2.109375 -3.09375 C 1.847656 -3.09375 1.613281 -3.035156 1.40625 -2.921875 C 1.195312 -2.804688 1.03125 -2.644531 0.90625 -2.4375 C 0.789062 -2.226562 0.734375 -2 0.734375 -1.75 C 0.734375 -1.5 0.789062 -1.269531 0.90625 -1.0625 C 1.03125 -0.851562 1.195312 -0.691406 1.40625 -0.578125 C 1.613281 -0.460938 1.847656 -0.40625 2.109375 -0.40625 Z M 2.109375 -0.40625 "/></g></g></g><g fill="#ffffff" fill-opacity="1"><g transform="translate(78.654053, 66.758323)"><g><path d="M 1.671875 -1.5625 L 1.03125 -0.90625 L 1.03125 0 L 0.53125 0 L 0.53125 -3.5 L 1.03125 -3.5 L 1.03125 -1.546875 L 2.921875 -3.5 L 3.5 -3.5 L 2 -1.921875 L 3.59375 0 L 3 0 Z M 1.671875 -1.5625 "/></g></g></g><g fill="#ffffff" fill-opacity="1"><g transform="translate(83.489078, 66.758323)"><g><path d="M 1.546875 0.046875 C 1.285156 0.046875 1.03125 0.00390625 0.78125 -0.078125 C 0.539062 -0.160156 0.347656 -0.269531 0.203125 -0.40625 L 0.390625 -0.796875 C 0.523438 -0.671875 0.695312 -0.570312 0.90625 -0.5 C 1.113281 -0.425781 1.328125 -0.390625 1.546875 -0.390625 C 1.835938 -0.390625 2.050781 -0.4375 2.1875 -0.53125 C 2.332031 -0.632812 2.40625 -0.765625 2.40625 -0.921875 C 2.40625 -1.046875 2.363281 -1.144531 2.28125 -1.21875 C 2.207031 -1.289062 2.113281 -1.347656 2 -1.390625 C 1.882812 -1.429688 1.722656 -1.476562 1.515625 -1.53125 C 1.253906 -1.59375 1.039062 -1.65625 0.875 -1.71875 C 0.71875 -1.78125 0.582031 -1.875 0.46875 -2 C 0.351562 -2.132812 0.296875 -2.316406 0.296875 -2.546875 C 0.296875 -2.722656 0.34375 -2.882812 0.4375 -3.03125 C 0.53125 -3.1875 0.675781 -3.3125 0.875 -3.40625 C 1.082031 -3.5 1.332031 -3.546875 1.625 -3.546875 C 1.832031 -3.546875 2.035156 -3.515625 2.234375 -3.453125 C 2.441406 -3.398438 2.613281 -3.328125 2.75 -3.234375 L 2.59375 -2.828125 C 2.445312 -2.921875 2.289062 -2.988281 2.125 -3.03125 C 1.957031 -3.082031 1.789062 -3.109375 1.625 -3.109375 C 1.34375 -3.109375 1.128906 -3.054688 0.984375 -2.953125 C 0.847656 -2.859375 0.78125 -2.726562 0.78125 -2.5625 C 0.78125 -2.4375 0.816406 -2.335938 0.890625 -2.265625 C 0.972656 -2.191406 1.070312 -2.132812 1.1875 -2.09375 C 1.3125 -2.050781 1.476562 -2.003906 1.6875 -1.953125 C 1.945312 -1.890625 2.15625 -1.828125 2.3125 -1.765625 C 2.476562 -1.703125 2.617188 -1.601562 2.734375 -1.46875 C 2.847656 -1.34375 2.90625 -1.171875 2.90625 -0.953125 C 2.90625 -0.773438 2.851562 -0.609375 2.75 -0.453125 C 2.644531 -0.296875 2.488281 -0.171875 2.28125 -0.078125 C 2.082031 0.00390625 1.835938 0.046875 1.546875 0.046875 Z M 1.546875 0.046875 "/></g></g></g></svg>